<svg xmlns="http://www.w3.org/2000/svg" viewBox="0 0 200 200"><path fill="url('#a')" d="M0 0h200v200H0z"/><defs><linearGradient id="a" gradientTransform="rotate(77 .5 .5)"><stop offset="0%" stop-color="#e39c6e"/><stop offset="100%" stop-color="#c34f9c"/></linearGradient></defs><path fill="#847082" stroke="#e39c6e" stroke-width=".911" d="M66.623 93.965v2.962q0 9.022-2.962 15.72-2.962 6.699-8.248 10.709l10.48 8.293-9.66 8.202-13.943-11.21q-1.96.274-3.919.274-8.248 0-14.673-3.828-6.425-3.827-9.979-10.981-3.6-7.109-3.736-16.36V94.33q0-9.569 3.508-16.814 3.509-7.29 9.98-11.21 6.47-3.964 14.809-3.964 8.248 0 14.718 3.919 6.425 3.873 10.025 11.118 3.6 7.245 3.6 16.587ZM50.765 97.2v-2.962q0-9.66-3.235-14.673-3.235-5.012-9.25-5.012-6.152 0-9.296 4.967-3.098 4.921-3.144 14.445v2.962q0 9.569 3.144 14.672 3.19 5.104 9.387 5.104 5.97 0 9.16-5.013 3.189-5.057 3.234-14.49Zm52.266 30.804-.41-5.195q-4.785 6.106-12.896 6.106-7.928 0-11.984-4.648-4.055-4.602-4.055-13.214V79.839h14.991v31.305q0 6.197 6.015 6.197 5.15 0 7.337-3.691V79.839h15.082v48.165h-14.08Zm38.094-48.165v48.165h-15.037V79.839h15.037Zm-15.903-12.394q0-3.19 2.279-5.24 2.324-2.051 6.015-2.051 3.69 0 6.015 2.05 2.324 2.05 2.324 5.24 0 3.19-2.324 5.24-2.324 2.051-6.015 2.051t-6.015-2.05q-2.279-2.05-2.279-5.24Zm64.296 20.505-21.462 28.48h21.963v11.574H149.1v-8.385l21.372-28.206h-20.414V79.839h39.461v8.11Z"/></svg>